<?xml version="1.0" encoding="UTF-8" standalone="no"?>
<svg
   xmlns:dc="http://purl.org/dc/elements/1.1/"
   xmlns:cc="http://creativecommons.org/ns#"
   xmlns:rdf="http://www.w3.org/1999/02/22-rdf-syntax-ns#"
   xmlns:svg="http://www.w3.org/2000/svg"
   xmlns="http://www.w3.org/2000/svg"
   xmlns:sodipodi="http://sodipodi.sourceforge.net/DTD/sodipodi-0.dtd"
   xmlns:inkscape="http://www.inkscape.org/namespaces/inkscape"
   viewBox="0 0 1200 399.99999"
   version="1.1"
   id="svg207"
   sodipodi:docname="vpn-features-fb.svg"
   width="1200"
   height="400"
   inkscape:export-filename="D:\SVG-Files\vpn-features-fb.png"
   inkscape:export-xdpi="299.88812"
   inkscape:export-ydpi="299.88812"
   inkscape:version="0.92.4 (5da689c313, 2019-01-14)">
  <metadata
     id="metadata211">
    <rdf:RDF>
      <cc:Work
         rdf:about="">
        <dc:format>image/svg+xml</dc:format>
        <dc:type
           rdf:resource="http://purl.org/dc/dcmitype/StillImage" />
        <dc:title></dc:title>
      </cc:Work>
    </rdf:RDF>
  </metadata>
  <sodipodi:namedview
     pagecolor="#ffffff"
     bordercolor="#666666"
     borderopacity="1"
     objecttolerance="10"
     gridtolerance="10"
     guidetolerance="10"
     inkscape:pageopacity="0"
     inkscape:pageshadow="2"
     inkscape:window-width="1366"
     inkscape:window-height="706"
     id="namedview209"
     showgrid="false"
     inkscape:zoom="0.42282774"
     inkscape:cx="793.6825"
     inkscape:cy="289.63349"
     inkscape:window-x="-8"
     inkscape:window-y="-8"
     inkscape:window-maximized="1"
     inkscape:current-layer="svg207"
     showguides="true"
     inkscape:guide-bbox="true" />
  <defs
     id="defs7">
    <style
       id="style2">.cls-1,.cls-36{fill:none}.cls-13{fill:#009ca2}.cls-4{fill:#d3d3d3}.cls-5{fill:#e5e5e5}.cls-6{clip-path:url(#clip-path)}.cls-7{fill:#515151}.cls-8{fill:#3a3a3a}.cls-10{fill:#676a75}.cls-14{fill:#4d4d4d}.cls-15{fill:#353535}.cls-16{fill:#068989}.cls-17{fill:#a3a3a3}.cls-18{fill:#c1c1c1}.cls-19{fill:#fff}.cls-22{fill:#6c777c}.cls-21{fill:#e0e0e0}.cls-23{fill:#748084}.cls-24{fill:#f2f2f2}.cls-28{fill:#33b0b5}.cls-34{opacity:.6}.cls-35{fill:#263238}.cls-36{stroke:#aaaeaf;stroke-miterlimit:10}.cls-37{fill:#aaaeaf}</style>
    <clipPath
       id="clip-path">
      <path
         class="cls-1"
         d="M 586.55,0 H 720.36 V 151.58 H 586.55 Z"
         id="path4"
         inkscape:connector-curvature="0"
         style="fill:none" />
    </clipPath>
  </defs>
  <g
     id="g4397"
     transform="matrix(0.84497542,0,0,0.84497542,-32.82839,136.36767)">
    <path
       style="fill:#1e1e1e;stroke-width:0.65663368"
       inkscape:connector-curvature="0"
       id="path11"
       d="m 850.86773,-116.40097 a 37.270529,37.270529 0 0 0 1.15567,-4.12366 2.9351526,2.9351526 0 0 0 -0.5844,-1.07031 20.303114,20.303114 0 0 0 -9.31106,-7.38057 l -10.23692,-4.04486 a 20.473839,20.473839 0 0 0 -15.06318,0 l -10.21722,4.04486 a 20.355645,20.355645 0 0 0 -9.29793,7.40683 3.0533467,3.0533467 0 0 0 -0.58441,1.07031 39.076271,39.076271 0 0 0 1.31327,4.64241 c 5.25307,14.69546 17.8473,21.8265 17.8473,21.8265 h 16.95428 c 0,0 12.58111,-7.13761 17.83418,-21.81337 0.0657,-0.18386 0.13132,-0.36772 0.19042,-0.55157 z" />
    <path
       style="fill:#d3d3d3;stroke-width:0.65663368"
       inkscape:connector-curvature="0"
       id="path13"
       d="m 809.13866,-128.40423 h -1.9699 a 2.9942497,2.9942497 0 0 0 -2.94829,3.60491 l 0.7617,4.18933 c 0.59753,3.10587 4.13679,1.68098 4.13679,1.68098 z"
       class="cls-4" />
    <path
       style="fill:#e5e5e5;stroke-width:0.65663368"
       inkscape:connector-curvature="0"
       id="path15"
       d="m 839.77062,-128.41737 h 1.9699 a 3.0270814,3.0270814 0 0 1 1.86484,0.65664 3.059913,3.059913 0 0 1 1.08345,2.96798 l -0.80766,4.16306 c -0.59097,3.10588 -4.13023,1.69411 -4.13023,1.69411 z m -9.23227,42.39227 6.61887,-6.231449 a 1.9173704,1.9173704 0 0 0 -0.96525,-3.283169 c -1.79918,-0.361148 -3.09275,-2.449243 -3.09275,-4.281251 v -8.181651 H 815.6459 v 8.188217 c 0,1.838574 -1.31327,3.939802 -3.08618,4.287818 a 1.9239367,1.9239367 0 0 0 -0.96525,3.283168 l 6.632,6.218317 a 8.982749,8.982749 0 0 0 12.29875,0 z"
       class="cls-5" />
    <path
       style="fill:#d3d3d3;stroke-width:0.65663368"
       inkscape:connector-curvature="0"
       id="path17"
       d="m 836.19197,-95.539718 c -1.79918,-0.361148 -3.09275,-2.449243 -3.09275,-4.281251 v -8.181651 h -6.89465 v 8.181651 c 0,1.832008 1.31327,3.939802 3.09274,4.281251 a 1.9173704,1.9173704 0 0 1 0.96525,3.283169 l -6.61886,6.231449 a 9.0549787,9.0549787 0 0 1 -2.7119,1.75322 8.9958817,8.9958817 0 0 0 9.59998,-1.75322 l 6.61887,-6.231449 a 1.9173704,1.9173704 0 0 0 -0.96525,-3.283169 z"
       class="cls-4" />
    <path
       style="fill:#e5e5e5;stroke-width:0.65663368"
       inkscape:connector-curvature="0"
       id="path19"
       d="m 835.18732,-145.83786 a 15.266734,15.266734 0 0 0 -21.48506,0 16.238551,16.238551 0 0 0 -4.94445,11.94417 v 16.42241 c 0.0919,4.42571 3.14528,7.49219 5.80464,10.12529 2.44268,2.41641 5.21367,5.25307 9.89547,5.33186 4.67523,-0.0591 7.44623,-2.92202 9.88891,-5.34499 2.62653,-2.62654 5.70614,-5.69958 5.79151,-10.13186 v -16.40928 a 16.271383,16.271383 0 0 0 -4.95759,-11.9376 z"
       class="cls-5" />
    <g
       transform="matrix(0.6566337,0,0,0.6566337,395.40033,-154.58422)"
       id="g27"
       clip-path="url(#clip-path)"
       class="cls-6">
      <path
         style="fill:#d3d3d3"
         inkscape:connector-curvature="0"
         id="path21"
         d="M 677.31,32.34 V 31.5 a 24.78,24.78 0 0 0 -7.55,-18.18 29.11,29.11 0 0 0 -3.12,-2.49 v 45.68 c -0.13,6.75 -4.78,11.42 -8.82,15.43 -2.68,2.66 -5.62,5.67 -9.73,7.18 a 15.93,15.93 0 0 0 5.35,1 c 7.12,-0.09 11.34,-4.45 15.06,-8.14 4,-4 8.69,-8.68 8.82,-15.43 z"
         class="cls-4" />
      <path
         style="fill:#515151"
         inkscape:connector-curvature="0"
         id="path23"
         d="m 697,87 -20.89,-4 a 18.92,18.92 0 0 0 -13,2.08 37.2,37.2 0 0 1 -8.53,3.18 4.79,4.79 0 0 1 -2.35,0 38.69,38.69 0 0 1 -8.49,-3.26 19,19 0 0 0 -13,-2.17 l -19.26,3.82 c -2.86,0.57 -3.93,1.26 -4.63,2.26 l -18.75,32.1 a 11.46,11.46 0 0 0 -0.56,10.47 l 7.57,16.85 a 4.76,4.76 0 0 0 4.51,3.2 l 107.67,-0.06 a 4.78,4.78 0 0 0 4.52,-3.24 l 7.36,-16.91 a 11.42,11.42 0 0 0 -0.58,-10.3 L 700,88.93 a 4.8,4.8 0 0 0 -3,-2 z"
         class="cls-7" />
      <path
         style="fill:#3a3a3a"
         inkscape:connector-curvature="0"
         id="path25"
         d="m 711.82,148.27 7.36,-16.91 a 11.42,11.42 0 0 0 -0.58,-10.3 L 700,88.93 a 4.77,4.77 0 0 0 -3,-2 l -20.89,-4 a 18.92,18.92 0 0 0 -13,2.08 30.56,30.56 0 0 1 -5.75,2.39 c 0.55,0.06 26.25,5.89 26.25,5.89 a 4.76,4.76 0 0 1 3,2 l 18.56,29.08 a 11.47,11.47 0 0 1 0.59,10.31 l -7.33,16.82 h 8.81 a 4.78,4.78 0 0 0 4.52,-3.24 z"
         class="cls-8" />
    </g>
    <path
       style="fill:#ededed;stroke-width:0.65663368"
       inkscape:connector-curvature="0"
       id="path29"
       d="m 857.25021,-57.02158 -65.51235,0.0394 -3.78877,-34.913211 a 1.9042377,1.9042377 0 0 1 1.89767,-2.11436 l 69.25516,-0.0394 a 1.9042377,1.9042377 0 0 1 1.89767,2.11436 z" />
    <path
       style="fill:#676a75;stroke-width:0.65663368"
       inkscape:connector-curvature="0"
       id="path31"
       d="m 830.74847,-74.84262 a 1.5036912,1.5036912 0 0 1 0,-3.00082 h 4.53734 a 1.5036912,1.5036912 0 1 1 0,3.00738 h -4.53734 z m -17.2629,0.007 a 1.5036912,1.5036912 0 1 1 0,-3.00081 h 4.53734 a 1.5036912,1.5036912 0 0 1 0,3.00738 z m 17.12501,-3.48672 a 1.5036912,1.5036912 0 0 1 -0.5844,-2.88919 l 1.03748,-0.43338 a 2.7381625,2.7381625 0 0 0 1.65471,-2.15376 l 0.42025,-2.33761 a 1.5036912,1.5036912 0 0 1 2.95485,0.53187 l -0.40055,2.23912 a 5.7455449,5.7455449 0 0 1 -3.46045,4.49138 l -1.03749,0.43337 a 1.5168238,1.5168238 0 0 1 -0.57783,0.1182 z m -12.43664,0.007 a 1.4642932,1.4642932 0 0 1 -0.55814,-0.0985 l -1.03748,-0.42681 a 5.7455449,5.7455449 0 0 1 -3.46046,-4.49138 l -0.41368,-2.23912 a 1.5036912,1.5036912 0 1 1 2.95485,-0.53844 c 0,0 0.42681,2.31792 0.42681,2.34418 a 2.7512952,2.7512952 0 0 0 1.65472,2.15376 l 1.03091,0.42681 a 1.5036912,1.5036912 0 0 1 -0.57783,2.88919 z m 16.44211,12.65334 a 1.5036912,1.5036912 0 0 1 -1.47086,-1.23448 l -0.42682,-2.32448 a 2.7315962,2.7315962 0 0 0 -1.64815,-2.15376 l -0.95212,-0.39398 a 1.5041971,1.5041971 0 0 1 1.15568,-2.77756 l 0.95212,0.40055 a 5.7586775,5.7586775 0 0 1 3.46702,4.48481 l 0.40712,2.23912 a 1.5102575,1.5102575 0 0 1 -1.20821,1.74664 1.3132674,1.3132674 0 0 1 -0.27578,0 z m -20.44101,0.007 h -0.26922 a 1.5102575,1.5102575 0 0 1 -1.20821,-1.74664 l 0.40712,-2.23912 a 5.7455449,5.7455449 0 0 1 3.46046,-4.49138 l 0.94555,-0.39398 a 1.4994061,1.4994061 0 1 1 1.16224,2.76443 l -0.95212,0.40055 a 2.7578615,2.7578615 0 0 0 -1.64815,2.15375 l -0.42025,2.34419 a 1.4971248,1.4971248 0 0 1 -1.47742,1.2279 z"
       class="cls-10" />
    <g
       transform="matrix(0.6566337,0,0,0.6566337,395.40033,-154.58422)"
       id="g37"
       clip-path="url(#clip-path)"
       class="cls-6">
      <path
         style="fill:#d6d6d6"
         inkscape:connector-curvature="0"
         id="path33"
         d="m 706.18,92.19 h -7.54 l -6.06,56.38 h 10.78 l 5.71,-53.17 a 2.9,2.9 0 0 0 -2.89,-3.22 z" />
      <path
         style="fill:#515151"
         inkscape:connector-curvature="0"
         id="path35"
         d="M 707.84,151.58 H 599.12 a 2.89,2.89 0 0 1 -2.89,-2.89 v -2.08 a 2.89,2.89 0 0 1 2.88,-2.89 l 108.72,-0.06 a 2.88,2.88 0 0 1 2.89,2.88 v 2.09 a 3,3 0 0 1 -2.88,3 z"
         class="cls-7" />
    </g>
    <path
       style="fill:#3a3a3a;stroke-width:0.65663368"
       inkscape:connector-curvature="0"
       id="path39"
       d="m 862.08303,-58.36112 a 1.8911051,1.8911051 0 0 0 -1.89767,-1.8911 h -5.14144 v 5.15457 l 5.14801,0.0394 a 1.9699011,1.9699011 0 0 0 1.8911,-1.9699 z"
       class="cls-8" />
    <path
       style="fill:#1381e1;fill-opacity:1;stroke-width:0.65663368"
       inkscape:connector-curvature="0"
       id="path41"
       d="m 829.12002,-82.97832 a 4.734329,4.734329 0 1 1 -4.72776,-4.72776 4.7277626,4.7277626 0 0 1 4.72776,4.72776 z" />
    <path
       style="fill:#1397e1;fill-opacity:1;stroke-width:0.65663368"
       inkscape:connector-curvature="0"
       id="path43"
       d="m 826.80867,-67.25194 a 4.7408953,4.7408953 0 0 1 -4.85909,0 8.1094262,8.1094262 0 0 1 -3.9398,-6.94718 v -4.46511 a 4.2943844,4.2943844 0 0 1 4.28782,-4.30095 h 4.15649 a 4.2943844,4.2943844 0 0 1 4.29438,4.29438 v 4.45854 a 8.1094262,8.1094262 0 0 1 -3.9398,6.96032 z"
       class="cls-13" />
    <path
       style="fill:#4d4d4d;stroke-width:0.65663368"
       inkscape:connector-curvature="0"
       id="path45"
       d="m 828.36489,-126.5 a 9.1928718,9.1928718 0 0 0 -7.81394,0 l 0.51218,1.14911 a 4.0645626,4.0645626 0 0 0 0.18385,0.38085 7.8008084,7.8008084 0 0 1 6.43501,0 c 0.27579,-0.6041 0.43995,-0.91272 0.6829,-1.52996 z m 11.78658,-0.22325 v -0.89959 h -5.39753 v 1.70725 h 5.35813 c 0.0328,-0.26266 0.0394,-0.53188 0.0394,-0.80766 z m -31.38053,-0.89959 v 1.71381 h 5.37783 v -1.71381 z"
       class="cls-14" />
    <path
       style="fill:#4d4d4d;stroke-width:0.65663368"
       inkscape:connector-curvature="0"
       id="path47"
       d="m 819.95998,-122.04802 h -5.81121 a 1.227905,1.227905 0 0 1 -1.12941,-1.28044 v -3.67714 a 1.227905,1.227905 0 0 1 1.16224,-1.31327 h 7.22298 a 1.227905,1.227905 0 0 1 1.15567,1.31327 v 2.07496 a 2.7315962,2.7315962 0 0 1 -2.60027,2.88262 z m 9.00245,0 h 5.81121 a 1.227905,1.227905 0 0 0 1.15567,-1.28044 v -3.67714 a 1.227905,1.227905 0 0 0 -1.15567,-1.31327 h -7.22297 a 1.227905,1.227905 0 0 0 -1.15568,1.31327 v 2.07496 a 2.7381625,2.7381625 0 0 0 2.56744,2.88262 z"
       class="cls-14" />
    <path
       style="fill:#353535;stroke-width:0.65663368"
       inkscape:connector-curvature="0"
       id="path49"
       d="m 834.77364,-128.26634 h -7.03912 v 5.9097 a 2.396713,2.396713 0 0 0 1.22791,0.34145 h 5.81121 a 1.227905,1.227905 0 0 0 1.15567,-1.28043 v -3.70999 a 1.227905,1.227905 0 0 0 -1.15567,-1.26073 z m -13.3822,0 h -7.05881 v 6.21832 h 5.60765 a 2.7315962,2.7315962 0 0 0 2.58714,-2.86292 v -2.09467 a 1.227905,1.227905 0 0 0 -1.13598,-1.26073 z"
       class="cls-15" />
    <path
       style="fill:#515151;stroke-width:0.65663368"
       inkscape:connector-curvature="0"
       id="path51"
       d="m 851.95774,-120.24228 c 0,-0.0919 0.046,-0.18386 0.0657,-0.28235 v -0.53844 c 0,-12.61393 -15.05661,-33.43579 -27.68367,-33.48832 -12.6205,0.0985 -27.65085,20.94005 -27.64428,33.54742 v 0.47934 a 0.17072476,0.17072476 0 0 1 0,0.0657 l 0.0591,0.24295 c 1.16224,-4.16305 15.60818,-7.39369 27.61144,-7.44622 12.00327,-0.0525 26.53457,3.28317 27.57862,7.39369 z"
       class="cls-7" />
    <path
       style="fill:#3a3a3a;stroke-width:0.65663368"
       inkscape:connector-curvature="0"
       id="path53"
       d="m 824.34629,-154.58422 a 13.441292,13.441292 0 0 0 -3.65088,0.56471 c 10.44704,3.05991 21.37999,17.82103 23.60598,29.09543 4.21559,1.26731 7.22297,2.88919 7.65635,4.6818 0,-0.0919 0.046,-0.18386 0.0657,-0.28235 v -0.53844 c 0,-12.61393 -15.05661,-33.43579 -27.68367,-33.48832 z"
       class="cls-8" />
    <path
       style="fill:#676a75;fill-opacity:1;stroke-width:0.65663368"
       inkscape:connector-curvature="0"
       id="path55"
       d="m 825.86312,-66.83169 v -11.977 h -2.91546 v 11.98356 a 4.754028,4.754028 0 0 0 2.91546,0 z"
       class="cls-16" />
    <path
       style="fill:#676a75;fill-opacity:1;stroke-width:0.65663368"
       inkscape:connector-curvature="0"
       id="path57"
       d="m 828.12194,-78.41471 a 2.0421308,2.0421308 0 0 0 1.9699,-2.62654 4.2746854,4.2746854 0 0 0 -3.59835,-1.9699 H 822.337 a 4.3206497,4.3206497 0 0 0 -3.53269,1.85828 2.0289981,2.0289981 0 0 0 1.91737,2.69219 z"
       class="cls-16" />
    <path
       style="fill:#a3a3a3;stroke-width:0.65663368"
       inkscape:connector-curvature="0"
       id="path59"
       d="m 989.75889,-138.27344 a 1.5430892,1.5430892 0 0 1 -1.54309,-1.54309 v -7.02598 a 1.5496555,1.5496555 0 0 1 3.09275,0 v 7.02598 a 1.5496555,1.5496555 0 0 1 -1.54966,1.54309 z"
       class="cls-17" />
    <path
       style="fill:#c1c1c1;stroke-width:0.65663368"
       inkscape:connector-curvature="0"
       id="path61"
       d="m 994.07297,-129.04773 h -8.6216 v -7.68262 a 3.0796121,3.0796121 0 0 1 3.08618,-3.08618 h 2.42955 a 3.0796121,3.0796121 0 0 1 3.08617,3.08618 z"
       class="cls-18" />
    <path
       style="fill:#a3a3a3;stroke-width:0.65663368"
       inkscape:connector-curvature="0"
       id="path63"
       d="m 990.90143,-139.81653 h -2.27852 a 3.2831685,3.2831685 0 0 0 -1.01778,0.16416 3.1715408,3.1715408 0 0 1 2.15376,3.00738 v 7.59726 h 4.31408 v -7.59726 a 3.1715408,3.1715408 0 0 0 -3.17154,-3.17154 z"
       class="cls-17" />
    <path
       style="fill:#e5e5e5;stroke-width:0.65663368"
       inkscape:connector-curvature="0"
       id="path65"
       d="m 972.20707,-112.27731 a 17.551819,17.551819 0 0 1 35.10363,0"
       class="cls-5" />
    <path
       style="fill:#d3d3d3;stroke-width:0.65663368"
       inkscape:connector-curvature="0"
       id="path67"
       d="m 989.75889,-129.82913 a 17.689712,17.689712 0 0 0 -3.40793,0.33488 17.558385,17.558385 0 0 1 14.14394,17.21694 h 6.8158 a 17.551819,17.551819 0 0 0 -17.55181,-17.55182 z"
       class="cls-4" />
    <path
       style="fill:#a3a3a3;stroke-width:0.65663368"
       inkscape:connector-curvature="0"
       id="path69"
       d="m 1011.198,-101.48225 h -42.8782 v -9.57372 a 2.9745507,2.9745507 0 0 1 2.94828,-2.97455 h 36.93562 a 2.9679843,2.9679843 0 0 1 2.968,2.97455 z"
       class="cls-17" />
    <path
       style="fill:#c1c1c1;stroke-width:0.65663368"
       inkscape:connector-curvature="0"
       id="path71"
       d="m 1014.7438,-98.684993 v 13.605453 h -49.96326 v -13.605453 a 2.8038259,2.8038259 0 0 1 2.79726,-2.803827 h 44.3622 a 2.8038259,2.8038259 0 0 1 2.8038,2.803827 z"
       class="cls-18" />
    <path
       style="fill:#a3a3a3;stroke-width:0.65663368"
       inkscape:connector-curvature="0"
       id="path73"
       d="m 1014.7438,-89.754775 v 4.675235 h -49.96326 v -4.675235 l 24.95208,-7.616951 z"
       class="cls-17" />
    <path
       style="fill:#e5e5e5;stroke-width:0.65663368"
       inkscape:connector-curvature="0"
       id="path75"
       d="m 1014.7438,-87.12824 v 30.38244 h -49.96326 v -30.40214 l 24.95208,-7.61695 z"
       class="cls-5" />
    <path
       style="fill:#c1c1c1;stroke-width:0.65663368"
       inkscape:connector-curvature="0"
       id="path77"
       d="m 964.78054,-85.07954 v 28.33374 h -17.72911 v -25.68751 a 2.6265348,2.6265348 0 0 1 2.62654,-2.62653 z m 67.67266,2.64623 v 25.68751 h -17.7291 v -28.33374 h 15.0697 a 2.6265348,2.6265348 0 0 1 2.6266,2.62653 z"
       class="cls-18" />
    <path
       style="fill:#515151;stroke-width:0.65663368"
       inkscape:connector-curvature="0"
       id="path79"
       d="m 941.30589,-45.93761 v -5.25307 a 5.5616874,5.5616874 0 0 1 5.56169,-5.56169 h 85.78922 a 5.5616874,5.5616874 0 0 1 5.5879,5.58796 v 5.25307"
       class="cls-7" />
    <path
       style="fill:#a3a3a3;stroke-width:0.65663368"
       inkscape:connector-curvature="0"
       id="path81"
       d="m 966.32363,-78.36218 a 1.5430892,1.5430892 0 0 1 -1.54309,1.54309 h -17.72911 v -3.09275 h 17.72911 a 1.5496555,1.5496555 0 0 1 1.54309,1.54966 z m 66.12957,-1.54966 v 3.09275 h -17.7291 a 1.5496555,1.5496555 0 1 1 0,-3.09275 z"
       class="cls-17" />
    <path
       style="fill:#c1c1c1;stroke-width:0.65663368"
       inkscape:connector-curvature="0"
       id="path83"
       d="m 1014.7438,-76.81909 h -49.78596 a 1.5496555,1.5496555 0 0 1 0,-3.09275 h 49.78596 a 1.5496555,1.5496555 0 0 1 0,3.09275 z"
       class="cls-18" />
    <path
       style="fill:#a3a3a3;stroke-width:0.65663368"
       inkscape:connector-curvature="0"
       id="path85"
       d="m 977.13182,-83.01115 a 1.5430892,1.5430892 0 0 1 -0.45307,-3.02051 l 12.74526,-3.861008 a 1.4905585,1.4905585 0 0 1 0.87989,0 l 13.0867,3.861008 a 1.5446871,1.5446871 0 0 1 -0.8799,2.96142 l -12.63362,-3.72968 -12.29875,3.72968 a 1.5299565,1.5299565 0 0 1 -0.44651,0.0657 z"
       class="cls-17" />
    <path
       style="fill:#c1c1c1;stroke-width:0.65663368"
       inkscape:connector-curvature="0"
       id="path87"
       d="m 976.3176,-78.36218 v 21.66891 h -3.07961 v -21.66891 a 1.5430892,1.5430892 0 1 1 3.08617,0 z m 9.99396,0 v 21.66891 h -3.09274 v -21.66891 a 1.5496555,1.5496555 0 1 1 3.09274,0 z m 9.9874,0 v 21.66891 h -3.08618 v -21.66891 a 1.54309,1.54309 0 1 1 3.08618,0 z m 9.99394,0 v 21.66891 h -3.0862 v -21.66891 a 1.5431,1.5431 0 1 1 3.0862,0 z"
       class="cls-18" />
    <path
       style="fill:#ffffff;stroke-width:0.65663368"
       inkscape:connector-curvature="0"
       id="path89"
       d="m 974.44619,-104.81795 a 1.5430892,1.5430892 0 0 1 -1.54309,-1.54309 v -2.25882 a 1.5496555,1.5496555 0 0 1 3.09275,0 v 2.25225 a 1.5496555,1.5496555 0 0 1 -1.54966,1.54309 z m 6.12639,0 a 1.5430892,1.5430892 0 0 1 -1.54308,-1.54309 v -2.25882 a 1.5430892,1.5430892 0 0 1 3.08617,0 v 2.25225 a 1.5430892,1.5430892 0 0 1 -1.54309,1.54309 z m 6.1264,0 a 1.5430892,1.5430892 0 0 1 -1.54309,-1.54309 v -2.25882 a 1.54309,1.54309 0 0 1 3.08618,0 v 2.25225 a 1.5430892,1.5430892 0 0 1 -1.54309,1.54309 z m 6.12639,0 a 1.5430892,1.5430892 0 0 1 -1.54309,-1.54309 v -2.25882 a 1.54309,1.54309 0 1 1 3.08618,0 v 2.25225 a 1.5430892,1.5430892 0 0 1 -1.54309,1.54309 z m 6.12639,0 a 1.5496555,1.5496555 0 0 1 -1.54965,-1.54309 v -2.25882 a 1.5496555,1.5496555 0 0 1 3.09279,0 v 2.25225 a 1.5430892,1.5430892 0 0 1 -1.54314,1.54309 z m 6.12644,0 a 1.5496555,1.5496555 0 0 1 -1.5497,-1.54309 v -2.25882 a 1.5496555,1.5496555 0 0 1 3.0927,0 v 2.25225 a 1.5430892,1.5430892 0 0 1 -1.543,1.54309 z"
       class="cls-19" />
    <path
       style="fill:#d3d3d3;stroke-width:0.65663368"
       inkscape:connector-curvature="0"
       id="path91"
       d="m 1140.0098,-18.64791 h 23.4812 V 2.14768 h -23.4812 z"
       class="cls-4" />
    <path
       inkscape:connector-curvature="0"
       id="path93"
       d="m 1163.5107,-18.64791 v 7.11134 l -8.661,7.13104 -9.4424,-7.51189 5.2006,-6.73049 z"
       style="opacity:0.1;isolation:isolate;fill:#6c777c;stroke-width:0.65663368" />
    <ellipse
       style="fill:#e0e0e0;stroke-width:0.65663368"
       id="ellipse95"
       transform="rotate(-5.0000002)"
       ry="5.3975291"
       rx="3.664016"
       cy="66.063751"
       cx="1134.5208"
       class="cls-21" />
    <ellipse
       style="fill:#e0e0e0;stroke-width:0.65928769"
       id="ellipse97"
       transform="rotate(-84.857236)"
       ry="3.6788254"
       rx="5.4193449"
       cy="1162.266"
       cx="140.44896"
       class="cls-21" />
    <path
       style="fill:#e5e5e5;stroke-width:0.65663368"
       inkscape:connector-curvature="0"
       id="path99"
       d="m 1168.5077,-40.98659 v 5.57482 a 20.473839,20.473839 0 0 1 -0.197,3.46703 26.29818,26.29818 0 0 1 -1.1556,5.58138 30.20515,30.20515 0 0 1 -6.9275,11.93104 l -1.5366,1.73351 a 8.0437628,8.0437628 0 0 1 -5.7783,2.50834 h -2.5084 a 8.29985,8.29985 0 0 1 -5.7718,-2.50834 l -1.5365,-1.73351 a 31.426489,31.426489 0 0 1 -5.3975,-8.08973 30.769855,30.769855 0 0 1 -2.6857,-9.44239 19.699011,19.699011 0 0 1 -0.2035,-3.46046 v -5.37783 a 72.938871,72.938871 0 0 1 0.9587,-9.04841 c 1.9305,-7.12448 8.0897,-7.70232 15.7592,-7.70232 a 16.79669,16.79669 0 0 1 16.1729,12.12803 11.438559,11.438559 0 0 1 0.8076,4.43884 z"
       class="cls-5" />
    <path
       style="fill:#ffffff;stroke-width:0.65663368"
       inkscape:connector-curvature="0"
       id="path101"
       d="m 1134.435,-0.36066 h 34.4601 V 18.8984 h -34.4601 z"
       class="cls-19" />
    <path
       style="fill:#009ca2;stroke-width:0.65663368"
       inkscape:connector-curvature="0"
       id="path103"
       d="m 1147.5217,19.07569 h 8.4837 l -1.3592,-13.2837 2.3113,-2.68563 -5.1939,-5.00355 -5.2006,5.20054 2.3114,2.48864 z"
       class="cls-13" />
    <path
       style="fill:#1397e1;fill-opacity:1;stroke-width:0.65663368"
       inkscape:connector-curvature="0"
       id="path105"
       d="m 1194.123,19.07569 v -5.97536 a 16.002163,16.002163 0 0 0 -10.5915,-15.01721 l -20.2178,-9.43583 -2.6922,30.40871 h 33.4884 z m -51.4079,0 -2.6922,-30.41527 -20.2177,9.2454 a 16.100658,16.100658 0 0 0 -10.3945,15.01722 v 5.97536 h 33.2979 z"
       class="cls-22" />
    <path
       style="fill:#748084;stroke-width:0.65663368"
       inkscape:connector-curvature="0"
       id="path107"
       d="m 1178.5279,19.07569 v -3.66401 l -9.6131,-9.43583 a 0.25608714,0.25608714 0 0 1 0,-0.38085 l 5.3976,-4.04486 c 0.1969,0 -10.9724,-12.70586 -10.9724,-12.70586 l -2.6922,30.41527 h 17.9064 v -0.18386 z m -53.5353,-3.64431 v 3.66401 h 17.7291 l -2.6922,-30.41527 c 0,0 -11.1628,12.70586 -10.9723,12.70586 l 5.3975,4.04487 c 0.197,0 0.197,0.38084 0,0.38084 z"
       class="cls-23" />
    <path
       style="fill:#f2f2f2;stroke-width:0.65663368"
       inkscape:connector-curvature="0"
       id="path109"
       d="m 1151.7636,-1.89719 11.7471,-9.63938 -1.7335,19.25907 z m 0,0 -11.7538,-9.63938 1.7335,19.83691 z"
       class="cls-24" />
    <path
       style="fill:#515151;stroke-width:0.65663368"
       inkscape:connector-curvature="0"
       id="path111"
       d="m 1135.2098,-33.10699 v -6.15265 c 0,0 3.8413,-7.51189 3.0862,-12.70587 0,0 16.7507,8.46401 26.5674,1.93051 0,0 2.1144,8.85799 3.8479,12.50887 l -0.5779,4.59644 c 0,0 1.9305,-0.19699 3.0862,-10.39452 0,0 2.6856,-8.86455 -3.2832,-12.70586 0,0 -4.8196,-10.02023 -19.0423,-8.66756 0,0 -9.2389,1.15567 -12.7059,8.08972 a 15.325831,15.325831 0 0 0 -4.2418,11.93104 29.003511,29.003511 0 0 0 3.2634,11.56988 z"
       class="cls-7" />
    <path
       style="fill:#1381e1;fill-opacity:1;stroke-width:0.65663368"
       inkscape:connector-curvature="0"
       id="path113"
       d="m 1109.3976,18.3534 h 84.7057 v 9.00901 h -84.7057 z"
       class="cls-22" />
    <path
       style="fill:#b3b3b3;fill-opacity:1;stroke-width:0.65663368"
       inkscape:connector-curvature="0"
       id="path115"
       d="m 1176.4005,5.98898 h -49.2804 a 3.8872715,3.8872715 0 0 0 -3.8413,4.42572 l 2.6856,16.94771 h 51.6049 l 2.6922,-16.94771 a 3.8019091,3.8019091 0 0 0 -3.861,-4.42572 z" />
    <path
       style="fill:#aebfc1;stroke-width:0.65663368"
       inkscape:connector-curvature="0"
       id="path117"
       d="M 1330.0199,268.89855 H 492.66748 a 7.3345984,7.3345984 0 1 1 0,-14.66263 h 837.59542 a 7.2229707,7.2229707 0 0 1 7.3346,7.3346 7.5644202,7.5644202 0 0 1 -7.5776,7.32803 z" />
    <path
       style="fill:#becbcc;stroke-width:0.65663368"
       inkscape:connector-curvature="0"
       id="path119"
       d="m 485.35915,261.57052 a 7.2229707,7.2229707 0 0 1 7.3346,-7.3346 h 837.56915 a 7.2229707,7.2229707 0 0 1 7.3346,7.3346" />
    <path
       style="fill:#1397e1;fill-opacity:1;stroke-width:0.65663368"
       inkscape:connector-curvature="0"
       id="path121"
       d="m 905.47995,220.74104 c -2.44267,-0.24296 -4.89192,-0.72887 -7.33459,-1.22134 v 38.62319 a 7.3345984,7.3345984 0 0 0 14.66919,0 V 219.5197 c -2.44924,0.49247 -4.89192,0.97838 -7.3346,1.22134 z"
       class="cls-13" />
    <path
       style="fill:#1381e1;fill-opacity:1;stroke-width:0.65663368"
       inkscape:connector-curvature="0"
       id="path123"
       d="m 905.47995,220.74104 c -2.44267,-0.24296 -4.89192,-0.72887 -7.33459,-1.22134 v 24.95208 h 14.68233 V 219.5197 c -2.44925,0.49247 -4.89193,0.97838 -7.3346,1.22134 z"
       class="cls-16" />
    <path
       style="fill:#1397e1;fill-opacity:1;stroke-width:0.65663368"
       inkscape:connector-curvature="0"
       id="path125"
       d="m 981.26205,226.61134 c 0,4.15649 -4.15649,8.06346 -8.07003,8.06346 h -135.4307 c -3.90697,0 -8.06346,-4.15649 -8.06346,-8.06346 v -77.48277 c 0,-4.1565 4.15649,-7.3346 8.06346,-7.3346 h 135.18775 c 4.15649,0 8.31298,3.1781 8.31298,7.3346 z"
       class="cls-13" />
    <path
       style="fill:#1381e1;fill-opacity:1;stroke-width:0.65663368"
       inkscape:connector-curvature="0"
       id="path127"
       d="m 981.2621,215.10055 v -65.98512 c 0,-4.15649 -4.15654,-7.3346 -8.07008,-7.3346 h -135.4307 c -3.90697,0 -8.06346,3.17811 -8.06346,7.3346"
       class="cls-28" />
    <path
       style="fill:#1381e1;fill-opacity:1;stroke-width:0.65663368"
       inkscape:connector-curvature="0"
       id="path129"
       d="m 878.5908,254.23592 h 53.7783 v 14.6692 h -53.7783 z"
       class="cls-13" />
    <path
       style="fill:#1397e1;fill-opacity:1;stroke-width:0.65663368"
       inkscape:connector-curvature="0"
       id="path131"
       d="m 878.5908,254.23592 h 53.7783 v 7.3346 h -53.7783 z"
       class="cls-28" />
    <path
       style="fill:#ffffff;stroke-width:0.65663368"
       inkscape:connector-curvature="0"
       id="path133"
       d="m 888.36808,166.22731 h -4.6424 a 2.6265348,2.6265348 0 0 0 -2.20629,1.9699 l -5.62078,16.37644 -1.4643,4.40601 c -0.49247,-1.47085 -0.73543,-2.69219 -1.22134,-4.15649 l -5.13487,-16.62596 a 2.6265348,2.6265348 0 0 0 -2.44924,-1.9699 h -4.64241 c -0.73542,0 -1.46429,0.73543 -1.9699,1.47086 a 2.902321,2.902321 0 0 0 -0.24295,2.44267 l 10.75566,33.24537 a 2.6265348,2.6265348 0 0 0 2.44268,1.9699 h 4.64896 a 2.6265348,2.6265348 0 0 0 2.19973,-1.9699 L 890.5678,170.3838 a 3.4735923,3.4735923 0 0 0 -0.24295,-2.68563 c -0.49248,-0.73543 -1.22791,-1.47086 -1.9699,-1.47086 z m 16.6194,0.49247 a 54.500597,54.500597 0 0 0 -9.04185,0.72887 c -1.22134,0.24952 -2.44267,1.22133 -2.44267,2.44924 v 32.50993 c 0,1.4643 2.19972,2.93516 3.42106,2.93516 h 4.15649 c 1.46429,0 1.9699,-1.71382 1.9699,-2.93516 v -10.50614 c 4.88535,0.24296 10.26318,-1.46429 12.95538,-4.39944 a 11.970432,11.970432 0 0 0 3.42106,-8.79889 q 0,-5.50259 -3.66401,-8.79889 c -2.44925,-1.96991 -6.11326,-3.17811 -10.76223,-3.17811 z m 5.37783,12.21996 c 0,2.93515 -2.19972,4.64896 -6.10669,4.64896 h -1.22134 v -8.5428 h 1.70724 c 5.37783,0 5.62079,2.93515 5.62079,3.9398 z m 39.11567,-12.71243 h -5.13488 c -1.46429,0 -2.19972,1.71381 -2.19972,3.1781 v 14.17673 L 932.12615,167.6916 a 3.2831685,3.2831685 0 0 0 -2.19972,-1.47086 h -4.6227 c -1.4643,0 -2.68564,1.71381 -2.68564,3.17811 v 33.00241 c 0,1.46429 1.22134,2.93515 2.68564,2.93515 h 3.9398 c 1.46429,0 3.17811,-1.71381 3.17811,-2.93515 v -17.10531 a 13.743343,13.743343 0 0 0 0.97838,1.71381 l 10.26318,17.11188 c 0.49248,0.72886 1.22791,1.46429 1.96991,1.46429 h 4.39944 c 1.47086,0 1.9699,-1.71381 1.9699,-2.93515 v -33.24537 c 0,-1.46429 -0.97182,-3.1781 -2.44268,-3.1781 z"
       class="cls-19" />
    <path
       style="fill:#515151;stroke-width:0.65663368"
       inkscape:connector-curvature="0"
       id="path135"
       d="m 1298.1075,294.00822 v 7.22298 h 57.5671 v -7.22298 H 1416.84 V 178.88064 a 7.2229707,7.2229707 0 0 0 -7.223,-7.22297 h -165.4716 a 7.2229707,7.2229707 0 0 0 -7.223,7.22297 v 115.12758 z"
       class="cls-7" />
    <path
       style="fill:#d3d3d3;stroke-width:0.65663368"
       inkscape:connector-curvature="0"
       id="path137"
       d="m 1355.6746,295.32149 v 5.90971 h -57.5671 v -5.90971 h -75.5523 v 5.54199 a 7.2229707,7.2229707 0 0 0 7.223,7.22297 h 194.2782 a 7.2229707,7.2229707 0 0 0 7.223,-7.22297 v -5.54199 z"
       class="cls-4" />
    <path
       style="fill:#6c777c;stroke-width:0.65663368"
       inkscape:connector-curvature="0"
       id="path139"
       d="m 1244.1454,286.81809 h 165.4979 V 178.88064 h -165.4979 z"
       class="cls-22" />
    <path
       style="fill:#a3a3a3;stroke-width:0.65663368"
       inkscape:connector-curvature="0"
       id="path141"
       d="m 637.84262,-54.49355 h 42.70746 v 81.85596 h -42.70746 z"
       class="cls-17" />
    <path
       style="fill:#c1c1c1;stroke-width:0.65663368"
       inkscape:connector-curvature="0"
       id="path143"
       d="M 680.55008,-26.02191 H 710.8012 V 27.36241 H 680.55008 Z"
       class="cls-18" />
    <path
       style="fill:#e5e5e5;stroke-width:0.65663368"
       inkscape:connector-curvature="0"
       id="path145"
       d="m 685.88851,-15.34504 h 7.11791 v 7.11791 h -7.11791 z m 12.45634,0 h 7.11791 v 7.11791 h -7.11791 z m -55.16379,-28.47164 h 7.11791 v 7.11791 h -7.11791 z m 12.45634,0 h 7.11791 v 7.11791 h -7.11791 z m 12.45634,0 h 7.11791 v 7.11791 h -7.11791 z m -24.91268,14.23582 h 7.11791 v 7.11791 h -7.11791 z m 12.45634,0 h 7.11791 v 7.11791 h -7.11791 z m 12.45634,0 h 7.11791 v 7.11791 h -7.11791 z m -24.91268,14.23582 h 7.11791 v 7.11791 h -7.11791 z m 12.45634,0 h 7.11791 v 7.11791 h -7.11791 z m 12.45634,0 h 7.11791 v 7.11791 h -7.11791 z m 17.79477,12.45634 h 7.11791 v 7.11791 h -7.11791 z m 12.45634,0 h 7.11791 v 7.11791 h -7.11791 z"
       class="cls-5" />
    <path
       style="fill:#c1c1c1;stroke-width:0.65663368"
       inkscape:connector-curvature="0"
       id="path147"
       d="m 607.59151,-26.02191 h 30.25111 v 53.38432 h -30.25111 z"
       class="cls-18" />
    <path
       style="fill:#e5e5e5;stroke-width:0.65663368"
       inkscape:connector-curvature="0"
       id="path149"
       d="m 625.38628,-15.34504 h 7.11791 v 7.11791 h -7.11791 z m -12.45634,0 h 7.11791 v 7.11791 h -7.11791 z m 12.45634,12.45634 h 7.11791 v 7.11791 h -7.11791 z m -12.45634,0 h 7.11791 v 7.11791 h -7.11791 z"
       class="cls-5" />
    <path
       style="fill:#e6e7e8;stroke-width:0.65663368"
       inkscape:connector-curvature="0"
       id="path151"
       d="m 648.51949,2.44973 h 10.67686 v 24.91268 h -10.67686 z" />
    <path
       style="fill:#d1d3d4;stroke-width:0.65663368"
       inkscape:connector-curvature="0"
       id="path153"
       d="m 659.19635,2.44973 h 10.67687 v 24.91268 h -10.67687 z" />
    <path
       style="fill:#6c777c;stroke-width:0.65663368"
       inkscape:connector-curvature="0"
       id="path155"
       d="m 637.84262,-54.49355 h 42.70746 v 3.55896 h -42.70746 z"
       class="cls-22" />
    <path
       style="fill:#a3a3a3;stroke-width:0.65663368"
       inkscape:connector-curvature="0"
       id="path157"
       d="m 634.28367,-61.61145 h 49.82537 v 7.1179 h -49.82537 z"
       class="cls-17" />
    <path
       style="fill:#d3d3d3;stroke-width:0.65663368"
       inkscape:connector-curvature="0"
       id="path159"
       d="m 459.00187,169.35945 h 53.96872 v 46.25984 h -53.96872 z"
       class="cls-4" />
    <path
       style="fill:#bcbcbc;stroke-width:0.65663368"
       inkscape:connector-curvature="0"
       id="path161"
       d="m 459.00187,183.75943 a 46.062854,46.062854 0 0 0 53.97529,0 v -14.39998 h -53.97529 z" />
    <path
       style="fill:#1381e1;fill-opacity:1;stroke-width:0.65663368"
       inkscape:connector-curvature="0"
       id="path163"
       d="m 563.89254,308.14555 3.04021,-75.85433 a 23.139772,23.139772 0 0 0 -14.78739,-22.5094 l -35.09707,-12.0361 a 3.0927447,3.0927447 0 0 0 -3.75595,1.39863 30.861784,30.861784 0 0 1 -54.59252,0 3.1058774,3.1058774 0 0 0 -3.76251,-1.39863 l -35.09051,12.0361 a 23.126639,23.126639 0 0 0 -14.78739,22.5094 l 3.03365,75.85433 z"
       class="cls-22" />
    <path
       style="fill:#1397e1;fill-opacity:1;stroke-width:0.65663368"
       inkscape:connector-curvature="0"
       id="path165"
       d="M 439.73624,250.27642 408.533,219.23078 a 23.126639,23.126639 0 0 0 -3.46702,13.06044 l 3.02708,75.85433 h 31.64318 z m 92.51969,0 31.24263,-31.04564 a 23.074108,23.074108 0 0 1 3.46702,13.06044 l -3.07304,75.85433 h -31.63661 z"
       class="cls-23" />
    <path
       style="fill:#e5e5e5;stroke-width:0.65663368"
       inkscape:connector-curvature="0"
       id="path167"
       d="m 528.40149,130.81505 v -11.58302 a 42.405405,42.405405 0 0 0 -84.81081,0 v 11.56989 h -0.14446 a 7.4068281,7.4068281 0 0 0 -1.31327,0.13789 c -3.74938,0.7223 -6.27742,4.30752 -6.27742,8.12913 v 2.79726 c 0,3.68371 2.35732,7.16387 5.9491,8.00436 a 7.6103846,7.6103846 0 0 0 2.35075,0.17729 3.7559448,3.7559448 0 0 1 3.9398,3.13871 38.511567,38.511567 0 0 0 75.7624,0 3.7362458,3.7362458 0 0 1 3.72968,-3.11244 h 0.79453 a 7.7088796,7.7088796 0 0 0 7.70888,-7.70888 v -3.85444 a 7.7088796,7.7088796 0 0 0 -7.68918,-7.69575 z"
       class="cls-5" />
    <path
       style="fill:#d3d3d3;stroke-width:0.65663368"
       inkscape:connector-curvature="0"
       id="path169"
       d="m 462.86288,146.23281 v -30.86178 a 42.372573,42.372573 0 0 1 24.65659,-38.47217 c -0.51217,0 -1.01121,-0.0788 -1.52339,-0.0788 a 42.405404,42.405404 0 0 0 -42.4054,42.41197 v 11.56989 h -0.14446 a 7.4068281,7.4068281 0 0 0 -1.31327,0.13789 c -3.74938,0.7223 -6.27742,4.30752 -6.27742,8.12913 v 2.79726 c 0,3.68371 2.35732,7.16387 5.9491,8.00436 a 7.6103846,7.6103846 0 0 0 2.35075,0.17729 3.7559448,3.7559448 0 0 1 3.9398,3.13871 38.524699,38.524699 0 0 0 37.9206,31.59722 c 0.51874,0 1.03092,-0.0525 1.54309,-0.0722 a 42.372573,42.372573 0 0 1 -24.69599,-38.47874 z"
       class="cls-4" />
    <path
       style="fill:#515151;stroke-width:0.65663368"
       inkscape:connector-curvature="0"
       id="path171"
       d="M 568.87639,311.99999 H 399.25477 a 3.85444,3.85444 0 1 1 0,-7.70888 h 169.62162 a 3.85444,3.85444 0 1 1 0,7.70888 z"
       class="cls-7" />
    <path
       style="fill:#b3b3b3;stroke-width:0.65663368"
       inkscape:connector-curvature="0"
       id="path173"
       d="m 526.91093,304.29111 h -85.6907 a 7.7088796,7.7088796 0 0 1 -7.69575,-7.2558 l -2.94828,-50.12085 a 7.7088796,7.7088796 0 0 1 7.69574,-8.17509 h 91.58727 a 7.7088796,7.7088796 0 0 1 7.69575,8.16195 l -2.94829,50.13399 a 7.7088796,7.7088796 0 0 1 -7.69574,7.2558 z" />
    <circle
       style="fill:#00d455;stroke-width:0.65663368"
       id="circle175"
       r="9.6393833"
       cy="273.44901"
       cx="484.06558"
       class="cls-19" />
    <path
       style="fill:#1397e1;fill-opacity:1;stroke-width:0.65663368"
       inkscape:connector-curvature="0"
       id="path177"
       d="m 446.66372,200.58238 a 42.372573,42.372573 0 0 0 78.65815,0 l -8.27358,-2.83666 a 3.0927447,3.0927447 0 0 0 -3.75595,1.39863 30.861784,30.861784 0 0 1 -54.59252,0 3.1058774,3.1058774 0 0 0 -3.76251,-1.39863 z"
       class="cls-23" />
    <path
       style="fill:#515151;stroke-width:0.65663368"
       inkscape:connector-curvature="0"
       id="path179"
       d="m 486.01578,76.83976 a 42.405404,42.405404 0 0 0 -42.4251,42.39227 v 11.56989 h 5.09547 a 3.8610062,3.8610062 0 0 0 3.57866,-2.37702 l 4.80656,-12.00983 a 7.7023133,7.7023133 0 0 1 7.1573,-4.84595 h 43.52825 a 7.7220123,7.7220123 0 0 1 7.15074,4.81312 l 4.81313,12.04266 a 3.8610062,3.8610062 0 0 0 3.57865,2.42298 h 5.10205 V 119.23203 A 42.411971,42.411971 0 0 0 486.01578,76.83976 Z"
       class="cls-7" />
    <path
       style="fill:#3f3f3f;stroke-width:0.65663368"
       inkscape:connector-curvature="0"
       id="path181"
       d="m 443.59068,119.23203 v 11.56989 h 5.09547 a 3.8610062,3.8610062 0 0 0 3.57866,-2.37702 l 4.80656,-12.00983 a 7.6432163,7.6432163 0 0 1 5.96223,-4.66209 42.411971,42.411971 0 0 1 24.48587,-34.80159 c -0.51217,0 -1.01121,-0.0788 -1.52339,-0.0788 a 42.405404,42.405404 0 0 0 -42.4054,42.35944 z" />
    <path
       style="fill:none;stroke-width:0.65663368"
       inkscape:connector-curvature="0"
       id="path183"
       d="M 1064.95,77.02362 H 719.57382 V -30.06677 H 1064.95 m -345.37618,-93.7082 v 93.7082 H 625.87219 M 560.14973,109.2906 h 114.91089 v 114.9109"
       class="cls-1" />
    <path
       inkscape:connector-curvature="0"
       id="path4232"
       d="M 983.0138,-14.12461 910.43119,137.33774"
       style="fill:none;stroke:#000000;stroke-width:3;stroke-linecap:butt;stroke-linejoin:miter;stroke-miterlimit:4;stroke-dasharray:none;stroke-opacity:1" />
    <path
       style="fill:none;stroke:#000000;stroke-width:3;stroke-linecap:butt;stroke-linejoin:miter;stroke-miterlimit:4;stroke-dasharray:none;stroke-opacity:1"
       d="M 1120.413,60.50109 970.58604,137.28321"
       id="path4234"
       inkscape:connector-curvature="0" />
    <path
       style="fill:none;stroke:#000000;stroke-width:3;stroke-linecap:butt;stroke-linejoin:miter;stroke-miterlimit:4;stroke-dasharray:none;stroke-opacity:1"
       d="M 828.43119,-14.12461 901.0138,137.33774"
       id="path4236"
       inkscape:connector-curvature="0" />
    <path
       inkscape:connector-curvature="0"
       id="path4240"
       d="M 710.58604,60.50109 860.413,137.28321"
       style="fill:none;stroke:#000000;stroke-width:3;stroke-linecap:butt;stroke-linejoin:miter;stroke-miterlimit:4;stroke-dasharray:none;stroke-opacity:1" />
    <path
       inkscape:connector-curvature="0"
       id="path4258"
       d="m 997.98061,107.95162 -27.35393,29.14569"
       style="fill:none;stroke:#000000;stroke-width:3;stroke-linecap:butt;stroke-linejoin:miter;stroke-miterlimit:4;stroke-dasharray:none;stroke-opacity:1" />
    <path
       inkscape:transform-center-x="0.68340159"
       transform="rotate(42.423446,1240.9132,201.22961)"
       inkscape:transform-center-y="0.48686725"
       d="m 1002.5106,296.28089 -7.83953,0 3.91975,-6.78921 z"
       inkscape:randomized="0"
       inkscape:rounded="0"
       inkscape:flatsided="true"
       sodipodi:arg2="1.5707963"
       sodipodi:arg1="0.52359878"
       sodipodi:r2="2.2630694"
       sodipodi:r1="4.5261388"
       sodipodi:cy="294.01782"
       sodipodi:cx="998.59082"
       sodipodi:sides="3"
       id="path4260"
       style="opacity:1;vector-effect:none;fill:#000000;fill-opacity:1;fill-rule:nonzero;stroke:none;stroke-width:1;stroke-linecap:butt;stroke-linejoin:miter;stroke-miterlimit:4;stroke-dasharray:none;stroke-dashoffset:0;stroke-opacity:1;paint-order:markers fill stroke"
       sodipodi:type="star" />
    <path
       style="fill:none;stroke:#000000;stroke-width:3;stroke-linecap:butt;stroke-linejoin:miter;stroke-miterlimit:4;stroke-dasharray:none;stroke-opacity:1"
       d="m 937.98061,107.95162 -27.35393,29.14569"
       id="path4262"
       inkscape:connector-curvature="0" />
    <path
       sodipodi:type="star"
       style="opacity:1;vector-effect:none;fill:#000000;fill-opacity:1;fill-rule:nonzero;stroke:none;stroke-width:1;stroke-linecap:butt;stroke-linejoin:miter;stroke-miterlimit:4;stroke-dasharray:none;stroke-dashoffset:0;stroke-opacity:1;paint-order:markers fill stroke"
       id="path4264"
       sodipodi:sides="3"
       sodipodi:cx="998.59082"
       sodipodi:cy="294.01782"
       sodipodi:r1="4.5261388"
       sodipodi:r2="2.2630694"
       sodipodi:arg1="0.52359878"
       sodipodi:arg2="1.5707963"
       inkscape:flatsided="true"
       inkscape:rounded="0"
       inkscape:randomized="0"
       d="m 1002.5106,296.28089 -7.83953,0 3.91975,-6.78921 z"
       inkscape:transform-center-y="0.48686725"
       transform="rotate(42.423446,1210.9132,123.93191)"
       inkscape:transform-center-x="0.68340159" />
    <path
       inkscape:connector-curvature="0"
       id="path4266"
       d="m 873.48634,107.95162 27.35393,29.14569"
       style="fill:none;stroke:#000000;stroke-width:3;stroke-linecap:butt;stroke-linejoin:miter;stroke-miterlimit:4;stroke-dasharray:none;stroke-opacity:1" />
    <path
       inkscape:transform-center-x="-0.68337646"
       transform="matrix(-0.73817935,0.67460451,0.67460451,0.73817935,1410.8196,-784.43957)"
       inkscape:transform-center-y="0.48686737"
       d="m 1002.5106,296.28089 -7.83953,0 3.91975,-6.78921 z"
       inkscape:randomized="0"
       inkscape:rounded="0"
       inkscape:flatsided="true"
       sodipodi:arg2="1.5707963"
       sodipodi:arg1="0.52359878"
       sodipodi:r2="2.2630694"
       sodipodi:r1="4.5261388"
       sodipodi:cy="294.01782"
       sodipodi:cx="998.59082"
       sodipodi:sides="3"
       id="path4268"
       style="opacity:1;vector-effect:none;fill:#000000;fill-opacity:1;fill-rule:nonzero;stroke:none;stroke-width:1;stroke-linecap:butt;stroke-linejoin:miter;stroke-miterlimit:4;stroke-dasharray:none;stroke-dashoffset:0;stroke-opacity:1;paint-order:markers fill stroke"
       sodipodi:type="star" />
    <path
       style="fill:none;stroke:#000000;stroke-width:3;stroke-linecap:butt;stroke-linejoin:miter;stroke-miterlimit:4;stroke-dasharray:none;stroke-opacity:1"
       d="m 832.90646,108.01375 27.35393,29.14569"
       id="path4270"
       inkscape:connector-curvature="0" />
    <path
       sodipodi:type="star"
       style="opacity:1;vector-effect:none;fill:#000000;fill-opacity:1;fill-rule:nonzero;stroke:none;stroke-width:1;stroke-linecap:butt;stroke-linejoin:miter;stroke-miterlimit:4;stroke-dasharray:none;stroke-dashoffset:0;stroke-opacity:1;paint-order:markers fill stroke"
       id="path4272"
       sodipodi:sides="3"
       sodipodi:cx="998.59082"
       sodipodi:cy="294.01782"
       sodipodi:r1="4.5261388"
       sodipodi:r2="2.2630694"
       sodipodi:arg1="0.52359878"
       sodipodi:arg2="1.5707963"
       inkscape:flatsided="true"
       inkscape:rounded="0"
       inkscape:randomized="0"
       d="m 1002.5106,296.28089 -7.83953,0 3.91975,-6.78921 z"
       inkscape:transform-center-y="0.48686737"
       transform="matrix(-0.73817935,0.67460451,0.67460451,0.73817935,1370.24,-784.37744)"
       inkscape:transform-center-x="-0.68337646" />
    <text
       id="text4276"
       y="51.166992"
       x="570.84937"
       style="font-style:normal;font-variant:normal;font-weight:normal;font-stretch:normal;font-size:19.81669807px;line-height:1.25;font-family:'Gauge Mono';-inkscape-font-specification:'Gauge Mono';letter-spacing:0px;word-spacing:0px;fill:#1397e1;fill-opacity:1;stroke:none;stroke-width:1.48625231"
       xml:space="preserve"><tspan
         style="font-weight:bold;fill:#1397e1;fill-opacity:1;stroke-width:1.48625231"
         id="tspan4274"
         y="51.166992"
         x="570.84937"
         sodipodi:role="line">Internet Provider</tspan></text>
    <text
       xml:space="preserve"
       style="font-style:normal;font-variant:normal;font-weight:normal;font-stretch:normal;font-size:19.81669807px;line-height:1.25;font-family:'Gauge Mono';-inkscape-font-specification:'Gauge Mono';letter-spacing:0px;word-spacing:0px;fill:#1397e1;fill-opacity:1;stroke:none;stroke-width:1.48625231"
       x="784.84937"
       y="-30.833008"
       id="text4280"><tspan
         sodipodi:role="line"
         x="784.84937"
         y="-30.833008"
         id="tspan4278"
         style="font-weight:bold;fill:#1397e1;fill-opacity:1;stroke-width:1.48625231">Hacker</tspan></text>
    <text
       id="text4284"
       y="-22.833008"
       x="924.84937"
       style="font-style:normal;font-variant:normal;font-weight:normal;font-stretch:normal;font-size:19.81669807px;line-height:1.25;font-family:'Gauge Mono';-inkscape-font-specification:'Gauge Mono';letter-spacing:0px;word-spacing:0px;fill:#1397e1;fill-opacity:1;stroke:none;stroke-width:1.48625231"
       xml:space="preserve"><tspan
         style="font-weight:bold;fill:#1397e1;fill-opacity:1;stroke-width:1.48625231"
         id="tspan4282"
         y="-22.833008"
         x="924.84937"
         sodipodi:role="line">Government</tspan></text>
    <text
       xml:space="preserve"
       style="font-style:normal;font-variant:normal;font-weight:normal;font-stretch:normal;font-size:19.81669807px;line-height:1.25;font-family:'Gauge Mono';-inkscape-font-specification:'Gauge Mono';letter-spacing:0px;word-spacing:0px;fill:#1397e1;fill-opacity:1;stroke:none;stroke-width:1.48625231"
       x="1096.8494"
       y="50.823471"
       id="text4288"><tspan
         sodipodi:role="line"
         x="1096.8494"
         y="50.823471"
         id="tspan4286"
         style="font-weight:bold;fill:#1397e1;fill-opacity:1;stroke-width:1.48625231">Corporate</tspan></text>
  </g>
  <g
     id="g1120"
     transform="translate(0,-13.550253)">
    <g
       transform="matrix(0.12364974,0,0,0.12364974,112.33228,64.788053)"
       id="g3257">
      <path
         style="fill:#e6e9ed"
         inkscape:connector-curvature="0"
         d="m 360,136 c 0,61.85547 -50.14453,112 -112,112 -61.85547,0 -112,-50.14453 -112,-112 0,-61.855469 50.14453,-112 112,-112 61.85547,0 112,50.144531 112,112 z m 0,0"
         id="path3168" />
      <path
         style="fill:#e6e9ed"
         inkscape:connector-curvature="0"
         d="m 488,360 c 0,61.85547 -50.14453,112 -112,112 -61.85547,0 -112,-50.14453 -112,-112 0,-61.85547 50.14453,-112 112,-112 61.85547,0 112,50.14453 112,112 z m 0,0"
         id="path3170" />
      <path
         style="fill:#e6e9ed"
         inkscape:connector-curvature="0"
         d="M 232,360 C 232,421.85547 181.85547,472 120,472 58.144531,472 8,421.85547 8,360 8,298.14453 58.144531,248 120,248 c 61.85547,0 112,50.14453 112,112 z m 0,0"
         id="path3172" />
      <g
         style="fill:#fcd770"
         id="g3200">
        <path
           inkscape:connector-curvature="0"
           d="m 88,8 c 8.800781,0 16,7.199219 16,16 0,0.800781 -0.0781,1.601562 -0.23828,2.398438 -0.80078,5.679687 -4.640626,10.402343 -9.839845,12.402343 C 92.078125,39.601562 90.078125,40 88,40 84.480469,40 81.28125,38.878906 78.640625,36.960938 74.640625,34.078125 72,29.28125 72,24 72,15.199219 79.199219,8 88,8 Z m 0,0"
           id="path3174" />
        <path
           inkscape:connector-curvature="0"
           d="M 33.359375,99.039062 C 37.359375,101.92188 40,106.71875 40,112 c 0,1.51953 -0.238281,3.03906 -0.640625,4.39844 C 37.839844,121.76172 33.519531,126 28.078125,127.44141 26.800781,127.83984 25.441406,128 24,128 15.199219,128 8,120.80078 8,112 c 0,-8.80078 7.199219,-16 16,-16 3.519531,0 6.71875,1.121094 9.359375,3.039062 z m 0,0"
           id="path3176" />
        <path
           inkscape:connector-curvature="0"
           d="m 78,256.23828 c 1.28125,2.32031 2,4.96094 2,7.76172 0,8.80078 -7.199219,16 -16,16 -5.761719,0 -10.800781,-3.12109 -13.601562,-7.67969 C 48.878906,269.92187 48,267.03906 48,264 48,256.64062 53.039062,250.39844 59.921875,248.55859 61.199219,248.16016 62.558594,248 64,248 c 3.039062,0 5.839844,0.80078 8.238281,2.32031 2.402344,1.44141 4.402344,3.44141 5.761719,5.91797 z m 0,0"
           id="path3178" />
        <path
           inkscape:connector-curvature="0"
           d="M 136.39844,128 C 145.03906,128.23828 152,135.35937 152,144 c 0,7.92187 -5.83984,14.55859 -13.44141,15.76172 C 137.76172,159.92187 136.87891,160 136,160 c -3.03906,0 -5.83984,-0.87891 -8.23828,-2.32031 C 123.12109,154.87891 120,149.76172 120,144 c 0,-1.51953 0.23828,-3.03906 0.64063,-4.39844 1.35937,-4.80078 4.8789,-8.64062 9.43749,-10.40234 C 131.92187,128.39844 133.92187,128 136,128 Z m 0,0"
           id="path3180" />
        <path
           inkscape:connector-curvature="0"
           d="m 206,32.238281 c 1.28125,2.320313 2,4.960938 2,7.761719 0,8.800781 -7.19922,16 -16,16 -5.76172,0 -10.80078,-3.121094 -13.60156,-7.679688 C 176.87891,45.921875 176,43.039062 176,40 c 0,-0.800781 0.0781,-1.601562 0.23828,-2.398438 C 177.35937,29.921875 184,24 192,24 c 6,0 11.19922,3.359375 14,8.238281 z m 0,0"
           id="path3182" />
        <path
           inkscape:connector-curvature="0"
           d="m 337.51953,68.878906 c -2.64062,2 -6,3.121094 -9.51953,3.121094 -8.80078,0 -16,-7.199219 -16,-16 0,-3.519531 1.12109,-6.878906 3.12109,-9.519531 C 318.07812,42.558594 322.71875,40 328,40 c 7.83984,0 14.39844,5.679688 15.76172,13.199219 C 343.92187,54.078125 344,55.039062 344,56 c 0,2.238281 -0.48047,4.320312 -1.28125,6.238281 -1.11719,2.640625 -2.95703,4.882813 -5.19922,6.640625 z m 0,0"
           id="path3184" />
        <path
           inkscape:connector-curvature="0"
           d="M 456.39844,27.519531 C 456.16016,26.398438 456,25.199219 456,24 c 0,-8.800781 7.19922,-16 16,-16 8.80078,0 16,7.199219 16,16 0,8.800781 -7.19922,16 -16,16 -0.0781,0 -0.23828,0 -0.32031,0 C 464.23828,39.839844 458,34.558594 456.39844,27.519531 Z m 0,0"
           id="path3186" />
        <path
           inkscape:connector-curvature="0"
           d="M 470.48047,96.078125 C 470.96094,96 471.44141,96 472,96 c 8.80078,0 16,7.19922 16,16 0,8.80078 -7.19922,16 -16,16 -5.12109,0 -9.76172,-2.48047 -12.64063,-6.23828 C 457.19922,119.03906 456,115.67969 456,112 c 0,-2.23828 0.48047,-4.32031 1.28125,-6.23828 2.23828,-5.28125 7.19922,-9.121095 13.19922,-9.683595 z m 0,0"
           id="path3188" />
        <path
           inkscape:connector-curvature="0"
           d="M 412.55859,158.16016 C 414.71875,160.87891 416,164.32031 416,168 c 0,6.39844 -3.83984,12 -9.28125,14.48047 C 404.64062,183.44141 402.39844,184 400,184 c -8.80078,0 -16,-7.19922 -16,-16 0,-8.80078 7.19922,-16 16,-16 5.12109,0 9.67969,2.39844 12.55859,6.16016 z m 0,0"
           id="path3190" />
        <path
           inkscape:connector-curvature="0"
           d="M 458.32031,284.23828 C 455.51953,286.55859 451.92187,288 448,288 c -8.80078,0 -16,-7.19922 -16,-16 0,-2.80078 0.71875,-5.44141 2,-7.67969 1.60156,-2.96094 4.16016,-5.35937 7.28125,-6.80078 C 443.35937,256.55859 445.60156,256 448,256 c 8.80078,0 16,7.19922 16,16 0,4.87891 -2.23828,9.28125 -5.67969,12.23828 z m 0,0"
           id="path3192" />
        <path
           inkscape:connector-curvature="0"
           d="m 392,472 c 0,8.80078 -7.19922,16 -16,16 -8.80078,0 -16,-7.19922 -16,-16 0,-0.48047 0,-0.87891 0.0781,-1.28125 C 360.71875,462.48047 367.67969,456 376,456 c 8.32031,0 15.28125,6.48047 15.92187,14.71875 C 392,471.12109 392,471.51953 392,472 Z m 0,0"
           id="path3194" />
        <path
           inkscape:connector-curvature="0"
           d="M 242.96094,456.87891 C 244.55859,456.32031 246.23828,456 248,456 c 8.80078,0 16,7.19922 16,16 0,8.80078 -7.19922,16 -16,16 -8.80078,0 -16,-7.19922 -16,-16 0,-7.03906 4.64062,-13.03906 10.96094,-15.12109 z m 0,0"
           id="path3196" />
        <path
           inkscape:connector-curvature="0"
           d="M 229.12109,384.87891 C 235.44141,387.03906 240,392.96094 240,400 c 0,7.03906 -4.64063,13.03906 -10.96094,15.19922 C 227.44141,415.67969 225.76172,416 224,416 c -2.23828,0 -4.39844,-0.48047 -6.32031,-1.28125 C 212,412.23828 208,406.55859 208,400 c 0,-8.80078 7.19922,-16 16,-16 1.76172,0 3.51953,0.32031 5.12109,0.87891 z m 0,0"
           id="path3198" />
      </g>
      <path
         style="fill:#b4dd7f"
         inkscape:connector-curvature="0"
         d="m 448,410.07812 v 35.60157 c -15.60156,13.12109 -34.87891,22 -56.07813,25.03906 C 391.28125,462.48047 384.32031,456 376,456 c -8.32031,0 -15.28125,6.48047 -15.92188,14.71875 C 338.87891,467.67969 319.60156,458.80078 304,445.67969 V 410.07812 C 304,399.35937 311.12109,390 321.44141,387.03906 L 360,376 l 16,16 16,-16 38.55859,11.03906 C 440.87891,390 448,399.35937 448,410.07812 Z m 0,0"
         id="path3202" />
      <path
         style="fill:#f0d0b4"
         inkscape:connector-curvature="0"
         d="M 392,355.67969 V 376 l -16,16 -16,-16 v -20.32031 c 4.71875,2.71875 10.16016,4.32031 16,4.32031 5.83984,0 11.28125,-1.60156 16,-4.32031 z m 0,0"
         id="path3204" />
      <path
         style="fill:#f0d0b4"
         inkscape:connector-curvature="0"
         d="M 392,355.67969 C 387.28125,358.39844 381.83984,360 376,360 c -5.83984,0 -11.28125,-1.60156 -16,-4.32031 C 350.39844,350.16016 344,339.83984 344,328 v -16 c 0,-17.67969 14.32031,-32 32,-32 8.80078,0 16.80078,3.60156 22.64062,9.35937 C 404.39844,295.19922 408,303.19922 408,312 v 16 c 0,11.83984 -6.39844,22.16016 -16,27.67969 z m 0,0"
         id="path3206" />
      <path
         style="fill:#69d6f4"
         inkscape:connector-curvature="0"
         d="m 192,410.07812 v 35.52344 C 172.55859,462.07812 147.44141,472 120,472 92.640625,472 67.519531,462.16016 48,445.67969 V 410.07812 C 48,399.35937 55.121094,390 65.441406,387.03906 L 104,376 l 16,16 16,-16 38.55859,11.03906 C 184.87891,390 192,399.35937 192,410.07812 Z m 0,0"
         id="path3208" />
      <path
         style="fill:#f0d0b4"
         inkscape:connector-curvature="0"
         d="M 136,355.67969 V 376 l -16,16 -16,-16 v -20.32031 c 4.71875,2.71875 10.16016,4.32031 16,4.32031 5.83984,0 11.28125,-1.60156 16,-4.32031 z m 0,0"
         id="path3210" />
      <path
         style="fill:#f0d0b4"
         inkscape:connector-curvature="0"
         d="M 136,355.67969 C 131.28125,358.39844 125.83984,360 120,360 c -5.83984,0 -11.28125,-1.60156 -16,-4.32031 C 94.398438,350.16016 88,339.83984 88,328 v -16 c 0,-17.67969 14.32031,-32 32,-32 8.80078,0 16.80078,3.60156 22.64062,9.35937 C 148.39844,295.19922 152,303.19922 152,312 v 16 c 0,11.83984 -6.39844,22.16016 -16,27.67969 z m 0,0"
         id="path3212" />
      <path
         style="fill:#ff826e"
         inkscape:connector-curvature="0"
         d="m 320,186.07812 v 35.60157 C 300.48047,238.16016 275.35937,248 248,248 c -27.44141,0 -52.55859,-9.83984 -72,-26.23828 v -35.6836 C 176,175.35937 183.12109,166 193.44141,163.03906 L 232,152 l 16,16 16,-16 38.55859,11.03906 C 312.87891,166 320,175.35937 320,186.07812 Z m 0,0"
         id="path3214" />
      <path
         style="fill:#f0d0b4"
         inkscape:connector-curvature="0"
         d="M 264,131.67969 V 152 l -16,16 -16,-16 v -20.32031 c 4.71875,2.71875 10.16016,4.32031 16,4.32031 5.83984,0 11.28125,-1.60156 16,-4.32031 z m 0,0"
         id="path3216" />
      <path
         style="fill:#f0d0b4"
         inkscape:connector-curvature="0"
         d="M 232,131.67969 C 222.39844,126.16016 216,115.83984 216,104 V 88 c 0,-17.679688 14.32031,-32 32,-32 8.80078,0 16.80078,3.601562 22.64062,9.359375 C 276.39844,71.199219 280,79.199219 280,88 v 16 c 0,11.83984 -6.39844,22.16016 -16,27.67969 C 259.28125,134.39844 253.83984,136 248,136 c -5.83984,0 -11.28125,-1.60156 -16,-4.32031 z m 0,0"
         id="path3218" />
      <path
         inkscape:connector-curvature="0"
         d="m 472,136 c 13.23047,0 24,-10.76953 24,-24 0,-10.92187 -7.36719,-20.046875 -17.36719,-22.953125 l 0.89453,-42.375 C 489.0625,43.496094 496,34.59375 496,24 496,10.769531 485.23047,0 472,0 459.72656,0 449.6875,9.296875 448.28125,21.199219 L 348.625,43.921875 C 344.44922,36.824219 336.81641,32 328,32 c -5.05469,0 -9.73438,1.59375 -13.61719,4.273438 C 294.61719,23.03125 271.83203,16 248,16 234.47266,16 221.28906,18.367188 208.64844,22.777344 204.32812,18.601562 198.47266,16 192,16 c -9.11328,0 -16.96875,5.167969 -21.02344,12.671875 L 111.55078,19.527344 C 109.44922,8.433594 99.703125,0 88,0 74.769531,0 64,10.769531 64,24 c 0,5.039062 1.574219,9.710938 4.238281,13.574219 L 30.777344,89.097656 C 28.609375,88.449219 26.367188,88 24,88 10.769531,88 0,98.769531 0,112 c 0,12.54297 9.703125,22.75391 21.984375,23.80078 l 28.519531,108.375 C 44.175781,248.49609 40,255.76953 40,264 c 0,2.12891 0.367188,4.15234 0.886719,6.12109 C 14.921875,292.96094 0,325.30469 0,360 c 0,66.16797 53.832031,120 120,120 41.30469,0 79.64844,-21.42578 101.54297,-56.24609 0.67187,0.0703 1.32031,0.1914 2.00781,0.19922 l 9.74609,29.22265 C 227.67969,457.57422 224,464.33594 224,472 c 0,13.23047 10.76953,24 24,24 10.41406,0 19.21484,-6.71094 22.52734,-16 h 82.95313 c 3.3125,9.28906 12.11328,16 22.52734,16 11.34375,0 20.82422,-7.9375 23.3125,-18.52734 C 454.83984,466.47266 496,417.12891 496,360 496,332.20703 486.25781,305.55078 468.61719,284.07812 470.71094,280.51953 472,276.42578 472,272 c 0,-13.23047 -10.76953,-24 -24,-24 -0.74219,0 -1.44141,0.15234 -2.16797,0.21484 l -29.10547,-63.0625 C 421.19922,180.79297 424,174.72656 424,168 c 0,-2.64063 -0.52734,-5.13672 -1.32031,-7.51172 l 36.41797,-28.32031 C 462.83203,134.56641 467.23828,136 472,136 Z m -8.47266,-89.625 -0.91797,43.546875 c -3.39453,1.445313 -6.3125,3.71875 -8.6875,6.46875 L 356.55078,58.519531 451.77734,36.808594 c 2.76563,4.351562 6.8711,7.710937 11.75,9.566406 z M 472,120 c -4.40625,0 -8,-3.58594 -8,-8 0,-4.41406 3.59375,-8 8,-8 4.40625,0 8,3.58594 8,8 0,4.41406 -3.59375,8 -8,8 z m 0,-104 c 4.40625,0 8,3.585938 8,8 0,4.414062 -3.59375,8 -8,8 -4.40625,0 -8,-3.585938 -8,-8 0,-4.414062 3.59375,-8 8,-8 z M 328,48 c 4.40625,0 8,3.585938 8,8 0,4.414062 -3.59375,8 -8,8 -4.40625,0 -8,-3.585938 -8,-8 0,-4.414062 3.59375,-8 8,-8 z m -22.92188,1.273438 C 304.44922,51.414062 304,53.648438 304,56 c 0,13.230469 10.76953,24 24,24 2.35156,0 4.58594,-0.449219 6.72656,-1.078125 C 346.01562,95.960938 352,115.54297 352,136 c 0,25.20703 -9.02344,48.33594 -24,66.35937 v -16.2539 c 0,-14.21094 -9.54297,-26.86719 -23.20703,-30.77735 L 272,145.96875 V 135.79297 C 281.65625,128.48047 288,117.00781 288,104 V 88 c 0,-22.054688 -17.94531,-40 -40,-40 -22.05469,0 -40,17.945312 -40,40 v 16 c 0,13.01563 6.34375,24.48828 16,31.79297 v 10.17578 l -32.79297,9.35937 C 177.54297,159.23047 168,171.88672 168,186.10547 v 16.01562 C 159,191.28906 152.12891,178.60156 148.11328,164.60156 155.19141,160.42578 160,152.80078 160,144 160,134.03125 153.88672,125.47266 145.21484,121.85547 148.51172,97.9375 160.12891,75.800781 177.98437,59.398438 181.94531,62.265625 186.76172,64 192,64 c 13.23047,0 24,-10.769531 24,-24 0,-0.953125 -0.17578,-1.855469 -0.28125,-2.777344 C 226.11328,33.816406 236.92187,32 248,32 c 20.46484,0 40.04687,5.984375 57.07812,17.273438 z M 248,128 c -13.23047,0 -24,-10.76953 -24,-24 V 88 c 0,-13.230469 10.76953,-24 24,-24 13.23047,0 24,10.769531 24,24 v 16 c 0,13.23047 -10.76953,24 -24,24 z m 0,16 c 2.73437,0 5.41406,-0.28125 8,-0.80859 v 5.49609 l -8,8 -8,-8 v -5.49609 C 242.58594,143.71875 245.26562,144 248,144 Z M 229.67187,160.98437 248,179.3125 l 18.32812,-18.32813 34.0625,9.73438 C 307.22266,172.67187 312,178.99219 312,186.10547 v 31.70312 C 294.32812,231.65625 272.14453,240 248,240 c -23.79297,0 -46.14453,-8.29688 -64,-22.28906 v -31.60547 c 0,-7.11328 4.77734,-13.4336 11.60156,-15.38672 z M 64,256 c 4.40625,0 8,3.58594 8,8 0,4.41406 -3.59375,8 -8,8 -4.40625,0 -8,-3.58594 -8,-8 0,-4.41406 3.59375,-8 8,-8 z m 2.015625,-15.80078 -28.519531,-108.375 c 2.34375,-1.60156 4.351562,-3.63281 6,-5.9375 l 68.656246,19.61719 c 0.32813,5.18359 2.29688,9.88671 5.40625,13.66406 l -48.781246,81.3125 c -0.890625,-0.17578 -1.839844,-0.19922 -2.761719,-0.28125 z M 88,48 c 0.328125,0 0.625,-0.07813 0.945312,-0.09766 l 31.269528,78.16016 c -1.375,1.21875 -2.64062,2.54687 -3.71093,4.04297 L 47.847656,110.48828 c -0.28125,-4.44922 -1.695312,-8.59375 -4.085937,-12.062499 L 81.230469,46.902344 C 83.390625,47.550781 85.632812,48 88,48 Z m 21.02344,-12.671875 59.42578,9.144531 c 0.10156,0.566406 0.28515,1.09375 0.4375,1.648438 -19.125,16.894531 -32.32813,39.398437 -37.79688,64.070316 L 103.78516,41.9375 c 2.125,-1.875 3.88672,-4.097656 5.23828,-6.609375 z M 136,136 c 4.40625,0 8,3.58594 8,8 0,4.41406 -3.59375,8 -8,8 -4.40625,0 -8,-3.58594 -8,-8 0,-4.41406 3.59375,-8 8,-8 z M 192,32 c 4.40625,0 8,3.585938 8,8 0,4.414062 -3.59375,8 -8,8 -4.40625,0 -8,-3.585938 -8,-8 0,-4.414062 3.59375,-8 8,-8 z M 88,16 c 4.40625,0 8,3.585938 8,8 0,4.414062 -3.59375,8 -8,8 -4.40625,0 -8,-3.585938 -8,-8 0,-4.414062 3.59375,-8 8,-8 z m -72,96 c 0,-4.41406 3.59375,-8 8,-8 4.40625,0 8,3.58594 8,8 0,4.41406 -3.59375,8 -8,8 -4.40625,0 -8,-3.58594 -8,-8 z m 40,329.80859 v -31.70312 c 0,-7.11328 4.777344,-13.4336 11.601562,-15.38672 L 101.67188,384.98437 120,403.3125 l 18.32812,-18.32813 34.0625,9.73438 C 179.22266,396.67187 184,402.99219 184,410.10547 v 31.78125 C 165.99219,455.96875 143.54297,464 120,464 95.855469,464 73.671875,455.65625 56,441.80859 Z M 120,352 c -13.23047,0 -24,-10.76953 -24,-24 v -16 c 0,-13.23047 10.76953,-24 24,-24 13.23047,0 24,10.76953 24,24 v 16 c 0,13.23047 -10.76953,24 -24,24 z m 0,16 c 2.73438,0 5.41406,-0.28125 8,-0.80859 v 5.49609 l -8,8 -8,-8 v -5.49609 c 2.58594,0.52734 5.26563,0.80859 8,0.80859 z m 80,58.28906 v -16.1914 c 0,-14.21094 -9.54297,-26.86719 -23.20703,-30.77735 L 144,369.96875 v -10.17578 c 9.65625,-7.3125 16,-18.78516 16,-31.79297 v -16 c 0,-22.05469 -17.94531,-40 -40,-40 -22.054688,0 -40,17.94531 -40,40 v 16 c 0,13.01563 6.34375,24.48828 16,31.79297 v 10.17578 l -32.792969,9.35938 C 49.542969,383.23047 40,395.88672 40,410.10547 v 16.25391 C 25.023438,408.33594 16,385.20703 16,360 16,330.58594 28.382812,303.12109 49.992188,283.40625 53.945312,286.26563 58.761719,288 64,288 c 13.230469,0 24,-10.76953 24,-24 0,-0.9375 -0.167969,-1.82422 -0.273438,-2.72656 C 98.175781,257.83203 108.99219,256 120,256 c 57.34375,0 104,46.65625 104,104 0,5.28906 -0.60156,10.70313 -1.48047,16.15234 C 209.98437,376.92969 200,387.27344 200,400 c 0,6.59375 2.67187,12.55859 6.99219,16.90234 -2.16016,3.28907 -4.51172,6.40235 -6.99219,9.38672 z M 224,392 c 4.40625,0 8,3.58594 8,8 0,4.41406 -3.59375,8 -8,8 -4.40625,0 -8,-3.58594 -8,-8 0,-4.41406 3.59375,-8 8,-8 z m 24,88 c -4.40625,0 -8,-3.58594 -8,-8 0,-4.41406 3.59375,-8 8,-8 4.40625,0 8,3.58594 8,8 0,4.41406 -3.59375,8 -8,8 z M 376,352 c -13.23047,0 -24,-10.76953 -24,-24 v -16 c 0,-13.23047 10.76953,-24 24,-24 13.23047,0 24,10.76953 24,24 v 16 c 0,13.23047 -10.76953,24 -24,24 z m 0,16 c 2.73437,0 5.41406,-0.28125 8,-0.80859 v 5.49609 l -8,8 -8,-8 v -5.49609 C 370.58594,367.71875 373.26562,368 376,368 Z M 357.67187,384.98437 376,403.3125 l 18.32812,-18.32813 34.0625,9.73438 C 435.22266,396.67187 440,402.99219 440,410.10547 v 31.55078 c -12.22266,9.61719 -26.66406,16.54297 -42.49609,19.88672 C 393.60156,453.55859 385.47266,448 376,448 c -9.47266,0 -17.60156,5.55859 -21.50391,13.54297 C 338.66406,458.19922 324.22266,451.27344 312,441.65625 v -31.55078 c 0,-7.11328 4.77734,-13.4336 11.60156,-15.38672 z M 376,480 c -4.40625,0 -8,-3.58594 -8,-8 0,-4.41406 3.59375,-8 8,-8 4.40625,0 8,3.58594 8,8 0,4.41406 -3.59375,8 -8,8 z m 80,-53.98438 v -15.91796 c 0,-14.21094 -9.54297,-26.86719 -23.20703,-30.77735 L 400,369.96875 v -10.17578 c 9.65625,-7.3125 16,-18.78516 16,-31.79297 v -16 c 0,-22.05469 -17.94531,-40 -40,-40 -22.05469,0 -40,17.94531 -40,40 v 16 c 0,13.01563 6.34375,24.48828 16,31.79297 v 10.17578 l -32.79297,9.35938 C 305.54297,383.23047 296,395.88672 296,410.10547 v 15.91797 c -14.99219,-18.11328 -24,-41.20703 -24,-66.01563 0,-57.34375 46.65625,-104 104,-104 16.83984,0 33.43359,4.1836 48.39062,12.09766 C 424.18359,269.375 424,270.66406 424,272 c 0,13.23047 10.76953,24 24,24 2.96875,0 5.78516,-0.60937 8.40625,-1.60156 C 471.60937,312.98438 480,336.00781 480,360 c 0,24.81641 -9.00781,47.90234 -24,66.01562 z M 456,272 c 0,4.41406 -3.59375,8 -8,8 -4.40625,0 -8,-3.58594 -8,-8 0,-4.41406 3.59375,-8 8,-8 4.40625,0 8,3.58594 8,8 z M 430.52734,253.23828 C 413.61719,244.56641 394.94531,240 376,240 c -66.16797,0 -120,53.83203 -120,120 0,43.83984 24.24609,83.10547 60.60156,104 h -46.07422 c -3.26172,-9.15234 -11.86328,-15.76172 -22.07812,-15.95313 l -9.7461,-29.22265 C 244.32031,414.42578 248,407.66406 248,400 248,391.99219 244.01562,384.92969 237.97656,380.56641 239.19141,373.64844 240,366.75391 240,360 240,293.83203 186.16797,240 120,240 c -12.12109,0 -24.03125,1.88672 -35.558594,5.48828 l 46.781254,-77.96875 c 0.3789,0.082 0.78515,0.0547 1.16015,0.12109 C 146.49609,219.18359 194.05469,256 248,256 c 66.16797,0 120,-53.83203 120,-120 0,-22.40625 -6.19922,-43.910156 -17.9375,-62.839844 l 98.00781,38.121094 C 448.0625,111.51953 448,111.75391 448,112 c 0,2.64063 0.52734,5.13672 1.32031,7.51172 l -36.41797,28.32031 C 409.16797,145.43359 404.76172,144 400,144 c -13.23047,0 -24,10.76953 -24,24 0,13.23047 10.76953,24 24,24 0.74219,0 1.44141,-0.15234 2.16016,-0.21484 z M 400,176 c -4.40625,0 -8,-3.58594 -8,-8 0,-4.41406 3.59375,-8 8,-8 4.40625,0 8,3.58594 8,8 0,4.41406 -3.59375,8 -8,8 z m 0,0"
         id="path3220" />
    </g>
    <g
       transform="matrix(0.12899455,0,0,0.12899455,111.54396,169.85228)"
       id="g3624">
      <path
         inkscape:connector-curvature="0"
         style="fill:#ffd15c"
         d="m 445.9,88.2 v 135.5 c 0,123.4 -83.8,231 -203.5,261.3 C 122.9,454.8 39.1,347.1 39.1,223.7 V 88.2 C 133.2,77.6 186.5,41.8 242.5,0 c 56,41.8 109.3,77.6 203.4,88.2 z"
         id="path3563" />
      <path
         inkscape:connector-curvature="0"
         style="fill:#f8b64c"
         d="M 242.5,431.5 C 152.4,402.9 90.5,319.3 90.5,223.7 v -91.8 c 63.3,-13.8 109.8,-39.3 152,-68.4 43.1,29.9 88.7,54.9 152,68.5 v 91.8 c 0,95.5 -61.9,179.1 -152,207.7 z"
         id="path3565" />
      <polygon
         style="fill:#ffffff"
         points="184.1,249.8 208.8,274.4 300.9,182.4 326.3,207.8 208.8,325.4 158.7,275.3 "
         id="polygon3567" />
      <g
         id="g3569" />
      <g
         id="g3571" />
      <g
         id="g3573" />
      <g
         id="g3575" />
      <g
         id="g3577" />
      <g
         id="g3579" />
      <g
         id="g3581" />
      <g
         id="g3583" />
      <g
         id="g3585" />
      <g
         id="g3587" />
      <g
         id="g3589" />
      <g
         id="g3591" />
      <g
         id="g3593" />
      <g
         id="g3595" />
      <g
         id="g3597" />
    </g>
    <g
       transform="matrix(0.13392591,0,0,0.13392591,111.62992,282.70268)"
       id="g4004">
      <g
         id="g3866">
        <g
           id="g3864">
          <polygon
             points="220.688,328 210.344,338.344 221.656,349.656 232,339.312 242.344,349.656 253.656,338.344 243.312,328 253.656,317.656 242.344,306.344 232,316.688 221.656,306.344 210.344,317.656 "
             id="polygon3862" />
        </g>
      </g>
      <g
         id="g3872">
        <g
           id="g3870">
          <polygon
             points="292.688,328 282.344,338.344 293.656,349.656 304,339.312 314.344,349.656 325.656,338.344 315.312,328 325.656,317.656 314.344,306.344 304,316.688 293.656,306.344 282.344,317.656 "
             id="polygon3868" />
        </g>
      </g>
      <g
         id="g3878">
        <g
           id="g3876">
          <polygon
             points="364.688,328 354.344,338.344 365.656,349.656 376,339.312 386.344,349.656 397.656,338.344 387.312,328 397.656,317.656 386.344,306.344 376,316.688 365.656,306.344 354.344,317.656 "
             id="polygon3874" />
        </g>
      </g>
      <g
         id="g3884">
        <g
           id="g3882">
          <polygon
             points="76.688,328 66.344,338.344 77.656,349.656 88,339.312 98.344,349.656 109.656,338.344 99.312,328 109.656,317.656 98.344,306.344 88,316.688 77.656,306.344 66.344,317.656 "
             id="polygon3880" />
        </g>
      </g>
      <g
         id="g3890">
        <g
           id="g3888">
          <polygon
             points="148.688,328 138.344,338.344 149.656,349.656 160,339.312 170.344,349.656 181.656,338.344 171.312,328 181.656,317.656 170.344,306.344 160,316.688 149.656,306.344 138.344,317.656 "
             id="polygon3886" />
        </g>
      </g>
      <g
         id="g3896">
        <g
           id="g3894">
          <path
             inkscape:connector-curvature="0"
             d="m 424,272 h -40 v -72 c 0,-4.418 -3.582,-8 -8,-8 H 168 v -72 c 0,-35.346 28.654,-64 64,-64 35.346,0 64,28.654 64,64 v 20 c 0,15.464 12.536,28 28,28 15.464,0 28,-12.536 28,-28 V 120 C 352,53.726 298.274,0 232,0 165.726,0 112,53.726 112,120 v 72 H 88 c -4.418,0 -8,3.582 -8,8 v 72 H 40 c -4.418,0 -8,3.582 -8,8 v 96 c 0,4.418 3.582,8 8,8 h 40 v 72 c 0,4.418 3.582,8 8,8 h 288 c 4.418,0 8,-3.582 8,-8 v -72 h 40 c 4.418,0 8,-3.582 8,-8 v -96 c 0,-4.418 -3.582,-8 -8,-8 z M 128,120 c 0,-57.438 46.562,-104 104,-104 57.438,0 104,46.562 104,104 v 20 c 0,6.627 -5.373,12 -12,12 -6.627,0 -12,-5.373 -12,-12 v -20 c 0,-44.183 -35.817,-80 -80,-80 -44.183,0 -80,35.817 -80,80 v 72 h -24 z m -32,88 h 272 v 64 h -40 v -16 c 10e-4,-3.609 -2.414,-6.771 -5.896,-7.72 l -88,-24 c -1.378,-0.375 -2.83,-0.375 -4.208,0 l -88,24 c -3.482,0.949 -5.897,4.111 -5.896,7.72 v 16 H 96 Z m 216,54.112 V 272 H 152 v -9.888 l 80,-21.824 z M 368,448 H 96 v -64 h 72.8 c 9.993,12.46 21.956,23.201 35.416,31.8 l 23.496,14.952 c 2.621,1.668 5.971,1.668 8.592,0 L 259.8,415.8 c 13.454,-8.6 25.412,-19.342 35.4,-31.8 H 368 Z M 190.248,384 h 83.504 c -6.815,6.916 -14.379,13.053 -22.552,18.296 L 232,414.512 212.8,402.296 C 204.627,397.053 197.063,390.916 190.248,384 Z M 416,368 H 48 v -80 h 368 z"
             id="path3892" />
        </g>
      </g>
      <g
         id="g3902">
        <g
           id="g3900">
          <rect
             x="112"
             y="416"
             width="16"
             height="16"
             id="rect3898" />
        </g>
      </g>
      <g
         id="g3908">
        <g
           id="g3906">
          <rect
             x="336"
             y="416"
             width="16"
             height="16"
             id="rect3904" />
        </g>
      </g>
      <g
         id="g3914">
        <g
           id="g3912">
          <rect
             x="112"
             y="224"
             width="16"
             height="16"
             id="rect3910" />
        </g>
      </g>
      <g
         id="g3920">
        <g
           id="g3918">
          <rect
             x="336"
             y="224"
             width="16"
             height="16"
             id="rect3916" />
        </g>
      </g>
      <g
         id="g3922" />
      <g
         id="g3924" />
      <g
         id="g3926" />
      <g
         id="g3928" />
      <g
         id="g3930" />
      <g
         id="g3932" />
      <g
         id="g3934" />
      <g
         id="g3936" />
      <g
         id="g3938" />
      <g
         id="g3940" />
      <g
         id="g3942" />
      <g
         id="g3944" />
      <g
         id="g3946" />
      <g
         id="g3948" />
      <g
         id="g3950" />
    </g>
    <text
       xml:space="preserve"
       style="font-style:normal;font-variant:normal;font-weight:normal;font-stretch:normal;font-size:14.82906342px;line-height:1.25;font-family:'Gauge Mono';-inkscape-font-specification:'Gauge Mono';letter-spacing:0px;word-spacing:0px;fill:#1397e1;fill-opacity:1;stroke:none;stroke-width:1.11217976"
       x="32.880646"
       y="367.80682"
       id="text4012"><tspan
         sodipodi:role="line"
         x="32.880646"
         y="367.80682"
         id="tspan4010"
         style="font-weight:bold;fill:#1397e1;fill-opacity:1;stroke-width:1.11217976">Access Restricted Content</tspan></text>
    <text
       id="text4401"
       y="146.22914"
       x="108.62135"
       style="font-style:normal;font-variant:normal;font-weight:normal;font-stretch:normal;font-size:14.82906342px;line-height:1.25;font-family:'Gauge Mono';-inkscape-font-specification:'Gauge Mono';letter-spacing:0px;word-spacing:0px;fill:#1397e1;fill-opacity:1;stroke:none;stroke-width:1.11217976"
       xml:space="preserve"><tspan
         style="font-weight:bold;fill:#1397e1;fill-opacity:1;stroke-width:1.11217976"
         id="tspan4399"
         y="146.22914"
         x="108.62135"
         sodipodi:role="line">Connect</tspan></text>
    <text
       xml:space="preserve"
       style="font-style:normal;font-variant:normal;font-weight:normal;font-stretch:normal;font-size:14.82906342px;line-height:1.25;font-family:'Gauge Mono';-inkscape-font-specification:'Gauge Mono';letter-spacing:0px;word-spacing:0px;fill:#1397e1;fill-opacity:1;stroke:none;stroke-width:1.11217976"
       x="111.58701"
       y="248.49576"
       id="text4405"><tspan
         sodipodi:role="line"
         x="111.58701"
         y="248.49576"
         id="tspan4403"
         style="font-weight:bold;fill:#1397e1;fill-opacity:1;stroke-width:1.11217976">Protect</tspan></text>
  </g>
</svg>
